<?xml version="1.0" encoding="UTF-8"?>
<svg width="160px" height="110px" viewBox="0 0 160 110" version="1.1" xmlns="http://www.w3.org/2000/svg" xmlns:xlink="http://www.w3.org/1999/xlink">
    <title>cloud-bg</title>
    <g id="cloud-bg" stroke="none" stroke-width="1" fill="none" fill-rule="evenodd">
        <path d="M107.5,2.5 L107.5,12.5 L117.5,12.5 L117.5,22.5 L127.5,22.5 L127.5,42.5 L137.5,42.5 L137.5,52.5 L147.5,52.5 L147.5,62.5 L157.5,62.5 L157.5,97.5 L147.5,97.5 L147.5,107.5 L12.5,107.5 L12.5,97.5 L2.5,97.5 L2.5,62.5 L12.5,62.5 L12.5,52.5 L22.5,52.5 L22.5,32.5 L32.5,32.5 L32.5,22.5 L52.5,22.5 L52.5,12.5 L72.5,12.5 L72.5,2.5 L107.5,2.5 Z" id="Path" stroke="#333333" stroke-width="5" fill="#333333" stroke-linejoin="bevel"></path>
        <g id="Group-3" transform="translate(5.000000, 5.000000)" fill="#475257" stroke="#3B3B3B" stroke-opacity="0.305770767">
            <rect id="Rectangle" x="40" y="20" width="10" height="10"></rect>
            <rect id="Rectangle-Copy-11" x="50" y="20" width="10" height="10"></rect>
            <rect id="Rectangle-Copy" x="10" y="50" width="10" height="10"></rect>
            <rect id="Rectangle-Copy-12" x="50" y="10" width="10" height="10"></rect>
            <rect id="Rectangle-Copy-2" x="0" y="60" width="10" height="10"></rect>
            <rect id="Rectangle-Copy-13" opacity="0.951251075" x="0" y="70" width="10" height="10"></rect>
            <rect id="Rectangle-Copy-3" x="20" y="30" width="10" height="10"></rect>
            <rect id="Rectangle-Copy-14" x="30" y="30" width="10" height="10"></rect>
            <rect id="Rectangle-Copy-4" x="40" y="30" width="10" height="10"></rect>
            <rect id="Rectangle-Copy-15" x="50" y="30" width="10" height="10"></rect>
            <rect id="Rectangle-Copy-5" x="40" y="40" width="10" height="10"></rect>
            <rect id="Rectangle-Copy-16" x="50" y="40" width="10" height="10"></rect>
            <rect id="Rectangle-Copy-6" x="40" y="50" width="10" height="10"></rect>
            <rect id="Rectangle-Copy-17" x="50" y="50" width="10" height="10"></rect>
            <rect id="Rectangle-Copy-7" x="40" y="60" width="10" height="10"></rect>
            <rect id="Rectangle-Copy-18" x="50" y="60" width="10" height="10"></rect>
            <rect id="Rectangle-Copy-8" opacity="0.951251075" x="40" y="70" width="10" height="10"></rect>
            <rect id="Rectangle-Copy-19" opacity="0.951251075" x="50" y="70" width="10" height="10"></rect>
            <rect id="Rectangle-Copy-9" opacity="0.850828625" x="40" y="80" width="10" height="10"></rect>
            <rect id="Rectangle-Copy-20" opacity="0.850828625" x="50" y="80" width="10" height="10"></rect>
            <rect id="Rectangle-Copy-10" opacity="0.951251075" x="140" y="70" width="10" height="10"></rect>
            <rect id="Rectangle-Copy-21" opacity="0.748352777" x="50" y="90" width="10" height="10"></rect>
            <rect id="Rectangle-Copy-32" opacity="0.951251075" x="10" y="70" width="10" height="10"></rect>
            <rect id="Rectangle-Copy-31" x="30" y="20" width="10" height="10"></rect>
            <rect id="Rectangle-Copy-30" opacity="0.850828625" x="10" y="80" width="10" height="10"></rect>
            <rect id="Rectangle-Copy-29" x="60" y="20" width="10" height="10"></rect>
            <rect id="Rectangle-Copy-28" x="60" y="30" width="10" height="10"></rect>
            <rect id="Rectangle-Copy-27" x="60" y="40" width="10" height="10"></rect>
            <rect id="Rectangle-Copy-26" x="60" y="50" width="10" height="10"></rect>
            <rect id="Rectangle-Copy-25" x="60" y="60" width="10" height="10"></rect>
            <rect id="Rectangle-Copy-24" opacity="0.951251075" x="60" y="70" width="10" height="10"></rect>
            <rect id="Rectangle-Copy-23" opacity="0.850828625" x="60" y="80" width="10" height="10"></rect>
            <rect id="Rectangle-Copy-22" opacity="0.748352777" x="60" y="90" width="10" height="10"></rect>
            <rect id="Rectangle-Copy-43" opacity="0.850828625" x="0" y="80" width="10" height="10"></rect>
            <rect id="Rectangle-Copy-42" opacity="0.748352777" x="10" y="90" width="10" height="10"></rect>
            <rect id="Rectangle-Copy-41" x="70" y="0" width="10" height="10"></rect>
            <rect id="Rectangle-Copy-40" x="70" y="20" width="10" height="10"></rect>
            <rect id="Rectangle-Copy-39" x="70" y="30" width="10" height="10"></rect>
            <rect id="Rectangle-Copy-38" x="70" y="40" width="10" height="10"></rect>
            <rect id="Rectangle-Copy-37" x="70" y="50" width="10" height="10"></rect>
            <rect id="Rectangle-Copy-36" x="70" y="60" width="10" height="10"></rect>
            <rect id="Rectangle-Copy-35" opacity="0.951251075" x="70" y="70" width="10" height="10"></rect>
            <rect id="Rectangle-Copy-34" opacity="0.850828625" x="70" y="80" width="10" height="10"></rect>
            <rect id="Rectangle-Copy-33" opacity="0.748352777" x="70" y="90" width="10" height="10"></rect>
            <rect id="Rectangle-Copy-54" opacity="0.748352777" x="20" y="90" width="10" height="10"></rect>
            <rect id="Rectangle-Copy-53" opacity="0.748352777" x="30" y="90" width="10" height="10"></rect>
            <rect id="Rectangle-Copy-52" x="80" y="0" width="10" height="10"></rect>
            <rect id="Rectangle-Copy-51" x="80" y="20" width="10" height="10"></rect>
            <rect id="Rectangle-Copy-50" x="80" y="30" width="10" height="10"></rect>
            <rect id="Rectangle-Copy-49" x="80" y="40" width="10" height="10"></rect>
            <rect id="Rectangle-Copy-48" x="80" y="50" width="10" height="10"></rect>
            <rect id="Rectangle-Copy-47" x="80" y="60" width="10" height="10"></rect>
            <rect id="Rectangle-Copy-46" opacity="0.951251075" x="80" y="70" width="10" height="10"></rect>
            <rect id="Rectangle-Copy-45" opacity="0.850828625" x="80" y="80" width="10" height="10"></rect>
            <rect id="Rectangle-Copy-44" opacity="0.748352777" x="80" y="90" width="10" height="10"></rect>
            <rect id="Rectangle-Copy-65" x="90" y="10" width="10" height="10"></rect>
            <rect id="Rectangle-Copy-64" opacity="0.748352777" x="40" y="90" width="10" height="10"></rect>
            <rect id="Rectangle-Copy-63" x="90" y="0" width="10" height="10"></rect>
            <rect id="Rectangle-Copy-62" x="90" y="20" width="10" height="10"></rect>
            <rect id="Rectangle-Copy-61" x="90" y="30" width="10" height="10"></rect>
            <rect id="Rectangle-Copy-60" x="90" y="40" width="10" height="10"></rect>
            <rect id="Rectangle-Copy-59" x="90" y="50" width="10" height="10"></rect>
            <rect id="Rectangle-Copy-58" x="90" y="60" width="10" height="10"></rect>
            <rect id="Rectangle-Copy-57" opacity="0.951251075" x="90" y="70" width="10" height="10"></rect>
            <rect id="Rectangle-Copy-56" opacity="0.850828625" x="90" y="80" width="10" height="10"></rect>
            <rect id="Rectangle-Copy-55" opacity="0.748352777" x="90" y="90" width="10" height="10"></rect>
            <rect id="Rectangle-Copy-76" x="30" y="40" width="10" height="10"></rect>
            <rect id="Rectangle-Copy-75" x="60" y="10" width="10" height="10"></rect>
            <rect id="Rectangle-Copy-74" x="100" y="10" width="10" height="10"></rect>
            <rect id="Rectangle-Copy-73" x="100" y="20" width="10" height="10"></rect>
            <rect id="Rectangle-Copy-72" x="100" y="30" width="10" height="10"></rect>
            <rect id="Rectangle-Copy-71" x="100" y="40" width="10" height="10"></rect>
            <rect id="Rectangle-Copy-70" x="100" y="50" width="10" height="10"></rect>
            <rect id="Rectangle-Copy-69" x="100" y="60" width="10" height="10"></rect>
            <rect id="Rectangle-Copy-68" opacity="0.951251075" x="100" y="70" width="10" height="10"></rect>
            <rect id="Rectangle-Copy-67" opacity="0.850828625" x="100" y="80" width="10" height="10"></rect>
            <rect id="Rectangle-Copy-66" opacity="0.748352777" x="100" y="90" width="10" height="10"></rect>
            <rect id="Rectangle-Copy-87" x="80" y="10" width="10" height="10"></rect>
            <rect id="Rectangle-Copy-86" x="20" y="40" width="10" height="10"></rect>
            <rect id="Rectangle-Copy-85" opacity="0.951251075" x="20" y="70" width="10" height="10"></rect>
            <rect id="Rectangle-Copy-84" x="110" y="20" width="10" height="10"></rect>
            <rect id="Rectangle-Copy-83" x="110" y="30" width="10" height="10"></rect>
            <rect id="Rectangle-Copy-82" x="110" y="40" width="10" height="10"></rect>
            <rect id="Rectangle-Copy-81" x="110" y="50" width="10" height="10"></rect>
            <rect id="Rectangle-Copy-80" x="110" y="60" width="10" height="10"></rect>
            <rect id="Rectangle-Copy-79" opacity="0.951251075" x="110" y="70" width="10" height="10"></rect>
            <rect id="Rectangle-Copy-78" opacity="0.850828625" x="110" y="80" width="10" height="10"></rect>
            <rect id="Rectangle-Copy-77" opacity="0.748352777" x="110" y="90" width="10" height="10"></rect>
            <rect id="Rectangle-Copy-98" x="70" y="10" width="10" height="10"></rect>
            <rect id="Rectangle-Copy-97" x="10" y="60" width="10" height="10"></rect>
            <rect id="Rectangle-Copy-96" x="30" y="50" width="10" height="10"></rect>
            <rect id="Rectangle-Copy-95" opacity="0.850828625" x="20" y="80" width="10" height="10"></rect>
            <rect id="Rectangle-Copy-94" x="20" y="50" width="10" height="10"></rect>
            <rect id="Rectangle-Copy-93" x="120" y="40" width="10" height="10"></rect>
            <rect id="Rectangle-Copy-92" x="120" y="50" width="10" height="10"></rect>
            <rect id="Rectangle-Copy-91" x="120" y="60" width="10" height="10"></rect>
            <rect id="Rectangle-Copy-90" opacity="0.951251075" x="120" y="70" width="10" height="10"></rect>
            <rect id="Rectangle-Copy-89" opacity="0.850828625" x="120" y="80" width="10" height="10"></rect>
            <rect id="Rectangle-Copy-88" opacity="0.748352777" x="120" y="90" width="10" height="10"></rect>
            <rect id="Rectangle-Copy-109" opacity="0.850828625" x="30" y="80" width="10" height="10"></rect>
            <rect id="Rectangle-Copy-108" x="20" y="60" width="10" height="10"></rect>
            <rect id="Rectangle-Copy-107" opacity="0.951251075" x="30" y="70" width="10" height="10"></rect>
            <rect id="Rectangle-Copy-106" x="30" y="60" width="10" height="10"></rect>
            <rect id="Rectangle-Copy-105" opacity="0.748352777" x="130" y="90" width="10" height="10"></rect>
            <rect id="Rectangle-Copy-104" x="130" y="50" width="10" height="10"></rect>
            <rect id="Rectangle-Copy-103" x="140" y="60" width="10" height="10"></rect>
            <rect id="Rectangle-Copy-102" x="130" y="60" width="10" height="10"></rect>
            <rect id="Rectangle-Copy-101" opacity="0.951251075" x="130" y="70" width="10" height="10"></rect>
            <rect id="Rectangle-Copy-100" opacity="0.850828625" x="130" y="80" width="10" height="10"></rect>
            <rect id="Rectangle-Copy-99" opacity="0.850828625" x="140" y="80" width="10" height="10"></rect>
        </g>
    </g>
</svg>