<svg width="82" height="82" xmlns="http://www.w3.org/2000/svg"><g fill="currentColor" fill-rule="evenodd"><path d="M29.12 33.386h-8.651c-.666 0-1.202.535-1.202 1.202v13.51a1.21 1.21 0 001.202 1.204h8.651V33.386zm2.267 16.446l15.915 10.61V22.246l-15.915 10.61v16.977-.001zM29.92 31.119l17.886-11.926c.757-.507 1.759.048 1.759.938l.004 42.423c0 .954-1.106 1.468-1.835.89L29.92 51.568h-9.451A3.477 3.477 0 0117 48.097v-13.51a3.484 3.484 0 013.469-3.47h9.451v.002zM58.996 31.432a1.135 1.135 0 011.604-1.603c6.324 6.325 6.324 16.705 0 23.03a1.135 1.135 0 01-1.604-1.603c5.446-5.446 5.446-14.378 0-19.824"/><path d="M55.614 34.818a1.131 1.131 0 011.592-1.604c4.473 4.471 4.473 11.789 0 16.259a1.13 1.13 0 01-1.592-1.604c3.58-3.577 3.58-9.474 0-13.051"/></g></svg>