<?xml version="1.0" encoding="UTF-8"?>
<svg width="82px" height="82px" viewBox="0 0 82 82" version="1.1" xmlns="http://www.w3.org/2000/svg" xmlns:xlink="http://www.w3.org/1999/xlink">
    <title>audio-streaming</title>
    <g id="audio-streaming" stroke="none" stroke-width="1" fill="none" fill-rule="evenodd">
        <g id="Group" transform="translate(17.000000, 19.000000)" fill="currentColor">
            <path d="M12.12,14.3858773 L3.469,14.3858773 C2.803,14.3858773 2.267,14.9208773 2.267,15.5878773 L2.267,29.0978773 C2.267,29.7568773 2.81,30.3018773 3.469,30.3018773 L12.12,30.3018773 L12.12,14.3858773 Z M14.387,30.8318773 L30.302,41.4418773 L30.302,3.24587726 L14.387,13.8568773 L14.387,30.8328773 L14.387,30.8318773 Z M12.92,12.1188773 L30.806,0.192877262 C31.563,-0.314122738 32.565,0.240877262 32.565,1.13087726 L32.569,43.5538773 C32.569,44.5078773 31.463,45.0218773 30.734,44.4438773 L12.92,32.5678773 L3.469,32.5678773 C1.558,32.5678773 0,31.0078773 0,29.0968773 L0,15.5868773 C0,13.6818773 1.564,12.1168773 3.469,12.1168773 L12.92,12.1168773 L12.92,12.1188773 Z" id="Fill-41"></path>
            <path d="M41.996,12.4317773 C41.554,11.9907773 41.554,11.2697773 41.996,10.8287773 C42.437,10.3867773 43.158,10.3867773 43.6,10.8287773 C49.924,17.1537773 49.924,27.5337773 43.6,33.8587773 C43.158,34.3007773 42.437,34.3007773 41.996,33.8587773 C41.554,33.4167773 41.554,32.6967773 41.996,32.2557773 C47.442,26.8097773 47.442,17.8777773 41.996,12.4317773" id="Fill-42"></path>
            <path d="M38.6142,15.8179773 C38.1722,15.3789773 38.1702,14.6619773 38.6092,14.2199773 C39.0482,13.7779773 39.7652,13.7759773 40.2062,14.2139773 C44.6792,18.6849773 44.6792,26.0029773 40.2062,30.4729773 C39.7652,30.9119773 39.0482,30.9089773 38.6092,30.4669773 C38.1702,30.0259773 38.1722,29.3079773 38.6142,28.8689773 C42.1942,25.2919773 42.1942,19.3949773 38.6142,15.8179773" id="Fill-43"></path>
        </g>
    </g>
</svg>