<svg width="82" height="82" xmlns="http://www.w3.org/2000/svg"><g fill="currentColor" fill-rule="evenodd"><path d="M39.967 62.838h2.257v-8.125h-2.257z"/><path d="M26.125 64.042h29.641v-2.257h-29.64zM25.072 20.408c-2.708 0-4.815 2.106-4.815 4.815 0 2.708 2.107 4.814 4.815 4.814H56.82c2.708 0 4.815-2.106 4.815-4.814 0-2.709-2.107-4.815-4.815-4.815H25.072zM56.97 32.144H25.072A7.064 7.064 0 0118 25.072 7.064 7.064 0 0125.072 18H56.82a7.063 7.063 0 017.071 7.072c.151 3.912-3.159 7.072-6.921 7.072zM25.072 44.031c-2.708 0-4.815 2.106-4.815 4.814s2.107 4.815 4.815 4.815H56.82c2.708 0 4.815-2.107 4.815-4.815s-2.107-4.814-4.665-4.814H25.072zM56.97 55.766H25.072A7.063 7.063 0 0118 48.696a7.064 7.064 0 017.072-7.073H56.82a7.063 7.063 0 017.071 7.072c.151 3.912-3.159 7.071-6.921 7.071z"/><path d="M48.995 26.275h8.577v-2.257h-8.577zM48.995 49.898h8.577v-2.257h-8.577zM25.523 26.275h2.86v-2.257h-2.86zM31.391 26.275h2.86v-2.257h-2.86zM25.523 49.898h2.86v-2.257h-2.86zM31.391 49.898h2.86v-2.257h-2.86zM25.072 32.144c-2.708 0-4.815 2.106-4.815 4.815 0 2.708 2.107 4.814 4.815 4.814H56.82c2.708 0 4.815-2.106 4.815-4.814 0-2.71-2.107-4.815-4.815-4.815H25.072zM56.97 44.03H25.072A7.064 7.064 0 0118 36.959a7.064 7.064 0 017.072-7.072H56.82a7.063 7.063 0 017.071 7.072c.151 3.912-3.159 7.072-6.921 7.072z"/><path d="M48.995 38.012h8.577v-2.257h-8.577zM25.523 38.012h2.86v-2.257h-2.86zM31.391 38.012h2.86v-2.257h-2.86z"/></g></svg>