<?xml version="1.0" encoding="UTF-8"?>
<svg width="82px" height="82px" viewBox="0 0 82 82" version="1.1" xmlns="http://www.w3.org/2000/svg" xmlns:xlink="http://www.w3.org/1999/xlink">
    <title>cloud-storage</title>
    <g id="cloud-storage" stroke="none" stroke-width="1" fill="none" fill-rule="evenodd">
        <g id="Group" transform="translate(18.000000, 18.000000)" fill="currentColor">
            <polygon id="Fill-15" points="21.9673 44.8384 24.2243 44.8384 24.2243 36.7134 21.9673 36.7134"></polygon>
            <polygon id="Fill-17" points="8.1253 46.0424 37.7663 46.0424 37.7663 43.7854 8.1253 43.7854"></polygon>
            <path d="M7.072,2.408 C4.364,2.408 2.257,4.514 2.257,7.223 C2.257,9.931 4.364,12.037 7.072,12.037 L38.82,12.037 C41.528,12.037 43.635,9.931 43.635,7.223 C43.635,4.514 41.528,2.408 38.82,2.408 L7.072,2.408 Z M38.97,14.144 L7.072,14.144 C3.16,14.144 0,10.984 0,7.072 C0,3.16 3.16,0 7.072,0 L38.82,0 C42.732,0 45.891,3.16 45.891,7.072 C46.042,10.984 42.732,14.144 38.97,14.144 L38.97,14.144 Z" id="Fill-18"></path>
            <path d="M7.072,26.0311 C4.364,26.0311 2.257,28.1371 2.257,30.8451 C2.257,33.5531 4.364,35.6601 7.072,35.6601 L38.82,35.6601 C41.528,35.6601 43.635,33.5531 43.635,30.8451 C43.635,28.1371 41.528,26.0311 38.97,26.0311 L7.072,26.0311 Z M38.97,37.7661 L7.072,37.7661 C3.16,37.7661 0,34.6071 0,30.6951 C0,26.7831 3.16,23.6231 7.072,23.6231 L38.82,23.6231 C42.732,23.6231 45.891,26.7831 45.891,30.6951 C46.042,34.6071 42.732,37.7661 38.97,37.7661 L38.97,37.7661 Z" id="Fill-19"></path>
            <polygon id="Fill-20" points="30.9953 8.2754 39.5723 8.2754 39.5723 6.0184 30.9953 6.0184"></polygon>
            <polygon id="Fill-21" points="30.9953 31.8984 39.5723 31.8984 39.5723 29.6414 30.9953 29.6414"></polygon>
            <polygon id="Fill-22" points="7.5233 8.2754 10.3823 8.2754 10.3823 6.0184 7.5233 6.0184"></polygon>
            <polygon id="Fill-23" points="13.3913 8.2754 16.2503 8.2754 16.2503 6.0184 13.3913 6.0184"></polygon>
            <polygon id="Fill-24" points="7.5233 31.8984 10.3823 31.8984 10.3823 29.6414 7.5233 29.6414"></polygon>
            <polygon id="Fill-25" points="13.3913 31.8984 16.2503 31.8984 16.2503 29.6414 13.3913 29.6414"></polygon>
            <path d="M7.072,14.1438 C4.364,14.1438 2.257,16.2498 2.257,18.9588 C2.257,21.6668 4.364,23.7728 7.072,23.7728 L38.82,23.7728 C41.528,23.7728 43.635,21.6668 43.635,18.9588 C43.635,16.2498 41.528,14.1438 38.82,14.1438 L7.072,14.1438 Z M38.97,26.0308 L7.072,26.0308 C3.16,26.0308 0,22.8708 0,18.9588 C0,15.0468 3.16,11.8868 7.072,11.8868 L38.82,11.8868 C42.732,11.8868 45.891,15.0468 45.891,18.9588 C46.042,22.8708 42.732,26.0308 38.97,26.0308 L38.97,26.0308 Z" id="Fill-26"></path>
            <polygon id="Fill-27" points="30.9953 20.0124 39.5723 20.0124 39.5723 17.7554 30.9953 17.7554"></polygon>
            <polygon id="Fill-28" points="7.5233 20.0124 10.3823 20.0124 10.3823 17.7554 7.5233 17.7554"></polygon>
            <polygon id="Fill-29" points="13.3913 20.0124 16.2503 20.0124 16.2503 17.7554 13.3913 17.7554"></polygon>
        </g>
    </g>
</svg>