<?xml version="1.0" encoding="UTF-8"?>
<svg width="82px" height="82px" viewBox="0 0 82 82" version="1.1" xmlns="http://www.w3.org/2000/svg" xmlns:xlink="http://www.w3.org/1999/xlink">
    <title>connected-devices</title>
    <g id="connected-devices" stroke="none" stroke-width="1" fill="none" fill-rule="evenodd">
        <g id="Group" transform="translate(18.000000, 21.000000)" fill="currentColor">
            <path d="M3.90925,12.31845 C3.46725,12.31845 3.02425,12.46545 2.72925,12.76145 C2.13825,13.35145 2.13825,14.53145 2.72925,15.12145 L9.36725,21.76045 L11.72825,19.40045 L5.08925,12.76145 C4.79425,12.46545 4.35125,12.31845 3.90925,12.31845 L3.90925,12.31845 Z M9.36725,24.85845 L1.10625,16.59645 C-0.36875,15.12145 -0.36875,12.61345 1.10625,11.13845 C2.58125,9.66345 5.08925,9.66345 6.56425,11.13845 L14.82625,19.40045 L9.36725,24.85845 Z" id="Fill-3"></path>
            <path d="M13.94105,2.13925 C13.49805,2.13925 13.05605,2.28625 12.76105,2.58225 C12.46605,2.87725 12.31805,3.46725 12.31805,3.91025 C12.31805,4.35225 12.46605,4.79525 12.76105,5.09025 L19.39905,11.72825 L21.76005,9.36825 L15.12105,2.72925 C14.82605,2.28625 14.38305,2.13925 13.94105,2.13925 L13.94105,2.13925 Z M19.39905,14.82725 L11.28505,6.56525 C10.54805,5.82725 10.10505,4.94225 10.10505,3.91025 C10.10505,2.87725 10.54805,1.84425 11.28505,1.10625 C12.76105,-0.36875 15.26905,-0.36875 16.74405,1.10625 L25.00505,9.36825 L19.39905,14.82725 Z" id="Fill-5"></path>
            <path d="M8.92485,25.30085 L17.03885,33.41485 C19.25185,35.62785 22.20185,36.80785 25.29985,36.80785 C28.39885,36.80785 31.34885,35.62785 33.56185,33.41485 C38.13485,28.84185 38.13485,21.46485 33.56185,16.89185 L25.44785,8.92585 L8.92485,25.30085 Z M25.29985,39.16785 C21.61285,39.16785 18.07185,37.69285 15.41585,35.03785 L5.67985,25.30085 L25.44785,5.67985 L35.18485,15.41685 C40.64285,20.87485 40.64285,29.72685 35.18485,35.03785 C32.52885,37.69285 28.98785,39.16785 25.29985,39.16785 L25.29985,39.16785 Z" id="Fill-7"></path>
            <path d="M27.36585,24.12065 C26.62785,24.12065 25.88985,24.41565 25.44785,25.00565 C24.41485,26.03865 24.41485,27.95565 25.44785,28.98865 C26.48085,30.02165 28.39885,30.02165 29.43085,28.98865 C30.02085,28.39865 30.31585,27.80865 30.31585,27.07065 C30.31585,26.33365 30.02085,25.59565 29.43085,25.15365 C28.69385,24.41565 28.10285,24.12065 27.36585,24.12065 M27.36585,32.08665 C26.03785,32.08665 24.70985,31.49665 23.82485,30.61165 C21.90785,28.69365 21.90785,25.44865 23.82485,23.53065 C25.74285,21.61265 29.13585,21.61265 30.90685,23.53065 C31.79185,24.41565 32.38185,25.74365 32.38185,27.07065 C32.38185,28.39865 31.79185,29.72665 30.90685,30.61165 C29.87385,31.49665 28.69385,32.08665 27.36585,32.08665" id="Fill-9"></path>
            <path d="M39.90535,37.39795 C37.10235,37.39795 34.88935,36.21795 33.70935,35.18495 L35.18435,33.41495 C35.33235,33.56195 39.46335,36.80795 43.88835,33.85695 L45.06935,35.77495 C43.29835,36.95495 41.52835,37.39795 39.90535,37.39795" id="Fill-11"></path>
        </g>
    </g>
</svg>