<svg width="82" height="82" xmlns="http://www.w3.org/2000/svg"><g fill="currentColor" fill-rule="evenodd"><path d="M41.429 62.514c-11.627 0-21.086-9.459-21.086-21.085 0-11.627 9.459-21.086 21.086-21.086 11.626 0 21.085 9.459 21.085 21.086 0 11.626-9.459 21.085-21.085 21.085m0-44.514C28.511 18 18 28.51 18 41.429c0 12.918 10.511 23.428 23.429 23.428s23.428-10.51 23.428-23.428C64.857 28.51 54.347 18 41.429 18"/><path d="M41.429 58.42c-9.37 0-16.992-7.622-16.992-16.99 0-9.37 7.622-16.993 16.992-16.993 9.369 0 16.992 7.622 16.992 16.992 0 9.37-7.623 16.991-16.992 16.991m0-35.657c-10.292 0-18.666 8.374-18.666 18.666s8.374 18.665 18.666 18.665 18.665-8.373 18.665-18.665-8.373-18.666-18.665-18.666"/><path d="M41.449 33.574c.619 0 1.226.073 1.813.21.005.002.01.004.014.004a7.801 7.801 0 013.727 2.087 1.173 1.173 0 001.657-1.657 10.149 10.149 0 00-3.982-2.464v-3.13a1.17 1.17 0 10-2.343 0v2.647a10.409 10.409 0 00-.886-.041c-.298 0-.593.016-.886.04v-2.645a1.172 1.172 0 10-2.343 0v3.129a10.138 10.138 0 00-3.981 2.464 10.128 10.128 0 00-2.988 7.21c0 2.725 1.061 5.286 2.987 7.212a10.149 10.149 0 003.982 2.464v3.129a1.17 1.17 0 102.343 0v-2.646c.293.025.588.04.886.04.297 0 .593-.015.886-.04v2.646a1.17 1.17 0 102.343 0v-3.13a10.138 10.138 0 003.981-2.463 1.17 1.17 0 10-1.656-1.657 7.804 7.804 0 01-3.74 2.09 7.868 7.868 0 01-3.62.002l-.028-.006a7.802 7.802 0 01-3.721-2.086 7.804 7.804 0 01-2.3-5.554 7.8 7.8 0 012.301-5.554 7.8 7.8 0 015.554-2.301"/></g></svg>