<?xml version="1.0" encoding="UTF-8"?>
<svg width="82px" height="82px" viewBox="0 0 82 82" version="1.1" xmlns="http://www.w3.org/2000/svg" xmlns:xlink="http://www.w3.org/1999/xlink">
    <title>cryptocurrency</title>
    <g id="cryptocurrency" stroke="none" stroke-width="1" fill="none" fill-rule="evenodd">
        <g id="Group" transform="translate(18.000000, 18.000000)" fill="currentColor">
            <path d="M23.429,44.514 C11.802,44.514 2.343,35.055 2.343,23.429 C2.343,11.802 11.802,2.343 23.429,2.343 C35.055,2.343 44.514,11.802 44.514,23.429 C44.514,35.055 35.055,44.514 23.429,44.514 M23.429,0 C10.511,0 0,10.51 0,23.429 C0,36.347 10.511,46.857 23.429,46.857 C36.347,46.857 46.857,36.347 46.857,23.429 C46.857,10.51 36.347,0 23.429,0" id="Fill-87"></path>
            <path d="M23.429,40.4203 C14.059,40.4203 6.437,32.7983 6.437,23.4293 C6.437,14.0593 14.059,6.4373 23.429,6.4373 C32.798,6.4373 40.421,14.0593 40.421,23.4293 C40.421,32.7983 32.798,40.4203 23.429,40.4203 M23.429,4.7633 C13.137,4.7633 4.763,13.1373 4.763,23.4293 C4.763,33.7213 13.137,42.0943 23.429,42.0943 C33.721,42.0943 42.094,33.7213 42.094,23.4293 C42.094,13.1373 33.721,4.7633 23.429,4.7633" id="Fill-88"></path>
            <path d="M23.449,15.5736 C24.068,15.5736 24.675,15.6466 25.262,15.7846 C25.267,15.7856 25.272,15.7876 25.276,15.7876 C26.676,16.1196 27.96,16.8316 29.003,17.8746 C29.461,18.3316 30.203,18.3316 30.66,17.8746 C31.117,17.4166 31.117,16.6756 30.66,16.2176 C29.522,15.0796 28.161,14.2466 26.678,13.7536 L26.678,10.6246 C26.678,9.9766 26.154,9.4526 25.507,9.4526 C24.86,9.4526 24.335,9.9766 24.335,10.6246 L24.335,13.2706 C24.042,13.2456 23.747,13.2296 23.449,13.2296 C23.151,13.2296 22.856,13.2456 22.563,13.2706 L22.563,10.6246 C22.563,9.9766 22.038,9.4526 21.391,9.4526 C20.744,9.4526 20.22,9.9766 20.22,10.6246 L20.22,13.7536 C18.737,14.2466 17.376,15.0796 16.239,16.2176 C14.312,18.1436 13.251,20.7046 13.251,23.4286 C13.251,26.1526 14.312,28.7136 16.238,30.6396 C17.376,31.7776 18.737,32.6106 20.22,33.1036 L20.22,36.2326 C20.22,36.8806 20.744,37.4046 21.391,37.4046 C22.038,37.4046 22.563,36.8806 22.563,36.2326 L22.563,33.5866 C22.856,33.6116 23.151,33.6266 23.449,33.6266 C23.746,33.6266 24.042,33.6116 24.335,33.5866 L24.335,36.2326 C24.335,36.8806 24.859,37.4046 25.506,37.4046 C26.153,37.4046 26.678,36.8806 26.678,36.2326 L26.678,33.1036 C28.161,32.6106 29.522,31.7776 30.659,30.6396 C31.117,30.1816 31.117,29.4406 30.659,28.9826 C30.202,28.5256 29.461,28.5256 29.003,28.9826 C27.96,30.0256 26.675,30.7376 25.275,31.0696 C25.271,31.0706 25.267,31.0716 25.263,31.0726 C24.676,31.2116 24.068,31.2836 23.449,31.2836 C22.833,31.2836 22.229,31.2116 21.643,31.0746 C21.634,31.0726 21.624,31.0696 21.615,31.0686 C20.218,30.7356 18.935,30.0246 17.894,28.9826 C16.411,27.4996 15.594,25.5266 15.594,23.4286 C15.594,21.3306 16.411,19.3576 17.895,17.8746 C19.378,16.3906 21.351,15.5736 23.449,15.5736" id="Fill-89"></path>
        </g>
    </g>
</svg>