<?xml version="1.0" encoding="UTF-8"?>
<svg width="82px" height="82px" viewBox="0 0 82 82" version="1.1" xmlns="http://www.w3.org/2000/svg" xmlns:xlink="http://www.w3.org/1999/xlink">
    <title>email</title>
    <g id="email" stroke="none" stroke-width="1" fill="none" fill-rule="evenodd">
        <g id="Group" transform="translate(17.000000, 17.000000)" fill="currentColor">
            <path d="M43.2045,17.80485 L43.2045,21.12785 L45.2615,19.54485 L43.2045,17.80485 Z M41.9385,24.76785 C41.7805,24.76785 41.6215,24.76785 41.4635,24.60985 C40.9885,24.45085 40.8305,23.97685 40.8305,23.50185 L40.8305,15.27285 C40.8305,14.79685 41.1475,14.32285 41.4635,14.16385 C41.9385,14.00585 42.4125,14.00585 42.7295,14.32285 L47.9525,18.43785 C48.2685,18.59585 48.4275,19.07085 48.4275,19.38685 C48.4275,19.70285 48.2685,20.01985 47.9525,20.33585 L42.7295,24.45085 C42.5715,24.76785 42.2545,24.76785 41.9385,24.76785 L41.9385,24.76785 Z" id="Fill-31"></path>
            <path d="M3.165,19.38685 L5.223,20.96985 L5.223,17.64685 L3.165,19.38685 Z M6.489,24.76785 C6.172,24.76785 6.014,24.60985 5.697,24.45085 L0.475,20.33585 C0.158,20.17785 0,19.70285 0,19.38685 C0,19.07085 0.158,18.75385 0.475,18.43785 L5.697,14.32285 C6.014,14.00585 6.489,14.00585 6.963,14.16385 C7.438,14.32285 7.597,14.79685 7.597,15.27285 L7.597,23.50185 C7.597,23.97685 7.28,24.45085 6.963,24.60985 C6.805,24.76785 6.647,24.76785 6.489,24.76785 L6.489,24.76785 Z" id="Fill-32"></path>
            <path d="M19.9404,5.93475 L28.3284,5.93475 L24.2134,2.61175 L19.9404,5.93475 Z M31.8104,8.30875 L16.6174,8.30875 C16.1424,8.30875 15.6674,7.99275 15.5094,7.51775 C15.3514,7.04275 15.5094,6.56875 15.8254,6.25075 L23.4224,0.23775 C23.8974,-0.07925 24.5304,-0.07925 24.8464,0.23775 L32.4424,6.25075 C32.7594,6.56875 32.9184,7.04275 32.7594,7.51775 C32.7594,7.99275 32.2844,8.30875 31.8104,8.30875 L31.8104,8.30875 Z" id="Fill-33"></path>
            <path d="M2.5322,45.81655 L46.0532,45.81655 L46.0532,22.07755 L25.0052,38.85255 C24.5302,39.16955 23.8972,39.16955 23.5802,38.85255 L2.5322,21.91955 L2.5322,45.81655 Z M47.1612,48.18955 L1.2662,48.18955 C0.6332,48.18955 0.0002,47.71455 0.0002,46.92355 L0.0002,19.38655 C0.0002,18.91255 0.3162,18.43755 0.6332,18.27955 C1.1082,18.12155 1.5822,18.12155 1.8992,18.43755 L24.0552,36.32055 L46.2112,18.43755 C46.5282,18.12155 47.0032,18.12155 47.4772,18.27955 C47.9522,18.43755 48.1102,18.91255 48.1102,19.38655 L48.1102,46.92355 C48.1102,47.24055 47.9522,47.55655 47.7942,47.71455 C47.6362,47.87355 47.4772,48.18955 47.1612,48.18955 L47.1612,48.18955 Z" id="Fill-34"></path>
            <polygon id="Fill-35" points="46.3915 47.79315 30.5445 32.76515 32.1785 31.04315 48.0245 46.07015"></polygon>
            <polygon id="Fill-36" points="2.0151 47.74035 0.3811 46.01835 16.2231 30.98635 17.8571 32.70835"></polygon>
            <path d="M7.5966,23.02655 L24.2136,36.32055 L40.8306,23.02655 L40.8306,8.30855 L7.5966,8.30855 L7.5966,23.02655 Z M24.2136,39.32755 L5.2226,24.13455 L5.2226,5.93455 L43.2046,5.93455 L43.2046,24.13455 L24.2136,39.32755 Z" id="Fill-37"></path>
            <polygon id="Fill-38" points="14.2431 15.58855 34.0251 15.58855 34.0251 13.21455 14.2431 13.21455"></polygon>
            <polygon id="Fill-39" points="14.2431 22.71055 34.0251 22.71055 34.0251 20.33655 14.2431 20.33655"></polygon>
        </g>
    </g>
</svg>