<svg width="82" height="82" xmlns="http://www.w3.org/2000/svg"><g fill="currentColor" fill-rule="evenodd"><path d="M60.205 34.805v3.323l2.056-1.583-2.056-1.74zm-1.267 6.963c-.157 0-.317 0-.474-.158-.475-.16-.633-.633-.633-1.108v-8.23c0-.475.316-.95.633-1.108.474-.158.949-.158 1.266.159l5.223 4.115c.316.158.474.633.474.949 0 .316-.158.633-.474.949L59.73 41.45c-.158.317-.475.317-.791.317zm-38.773-5.381l2.058 1.583v-3.323l-2.058 1.74zm3.324 5.38c-.317 0-.475-.157-.792-.316l-5.222-4.115c-.317-.158-.475-.633-.475-.95 0-.315.158-.632.475-.948l5.222-4.115c.317-.317.792-.317 1.266-.16.475.16.634.634.634 1.11v8.229c0 .475-.317.949-.634 1.108-.158.158-.316.158-.474.158zM36.94 22.935h8.388l-4.115-3.323-4.273 3.323zm11.87 2.374H33.617a1.19 1.19 0 01-1.108-.791c-.158-.475 0-.95.316-1.267l7.597-6.013c.475-.317 1.108-.317 1.424 0l7.596 6.013c.317.318.476.792.317 1.267 0 .475-.475.79-.949.79z"/><path d="M19.532 62.817h43.521v-23.74L42.005 55.854c-.475.317-1.108.317-1.425 0L19.532 38.92v23.897zm44.63 2.373H18.265c-.633 0-1.266-.475-1.266-1.266V36.387c0-.474.316-.95.633-1.107.475-.158.95-.158 1.266.158L41.055 53.32l22.156-17.883c.317-.316.792-.316 1.266-.158.475.158.633.633.633 1.107v27.537c0 .317-.158.633-.316.79-.158.16-.317.476-.633.476z"/><path d="M63.392 64.793L47.544 49.765l1.635-1.722L65.025 63.07zm-44.377-.053l-1.634-1.722 15.842-15.032 1.634 1.722z"/><path d="M24.597 40.027L41.214 53.32 57.83 40.027V25.309H24.597v14.718zm16.617 16.3L22.223 41.136v-18.2h37.982v18.2L41.214 56.328z"/><path d="M31.243 32.589h19.782v-2.374H31.243zm0 7.121h19.782v-2.373H31.243z"/></g></svg>