<svg width="82" height="82" xmlns="http://www.w3.org/2000/svg"><g fill="currentColor" fill-rule="evenodd"><path d="M41.272 23.342c-3.592 0-6.558 2.966-6.558 6.558 0 3.59 2.966 6.557 6.558 6.557 3.59 0 6.558-2.967 6.558-6.557.155-3.592-2.811-6.558-6.558-6.558m0 15.457c-4.841 0-8.9-3.903-8.9-8.899 0-4.841 3.904-8.9 8.9-8.9s8.899 3.904 8.899 8.9c0 4.839-3.903 8.899-8.9 8.899M30.498 59.096h21.546c-1.093-8.275-5.62-14.364-10.773-14.364-5.152 0-9.524 6.09-10.773 14.364zm24.044 2.342H28l.156-1.249c.937-10.305 6.558-17.643 13.115-17.643 6.713 0 12.178 7.494 13.116 17.643l.155 1.25z"/></g></svg>