<?xml version="1.0" encoding="UTF-8"?>
<svg width="82px" height="82px" viewBox="0 0 82 82" version="1.1" xmlns="http://www.w3.org/2000/svg" xmlns:xlink="http://www.w3.org/1999/xlink">
    <title>online-gaming</title>
    <g id="online-gaming" stroke="none" stroke-width="1" fill="none" fill-rule="evenodd">
        <g id="Group" transform="translate(14.000000, 21.000000)" fill="currentColor">
            <path d="M21.2401729,20.271 L32.3451729,20.271 C32.8741729,20.271 33.4031729,20.624 33.5791729,21.152 C36.7521729,29.437 42.7451729,36.488 46.6231729,36.488 C46.9751729,36.488 47.1511729,36.488 47.5041729,36.312 C49.2661729,35.783 50.6771729,32.786 51.0291729,28.556 C51.3821729,24.149 50.6771729,18.685 49.2661729,13.925 C46.9751729,6.875 42.9221729,2.468 38.6911729,2.468 C37.9861729,2.468 37.2811729,2.645 36.5761729,2.821 C34.6361729,3.526 33.0511729,4.936 32.3451729,7.051 C32.1691729,7.58 31.6401729,7.932 31.1111729,7.932 L22.6501729,7.932 C22.1221729,7.932 21.5931729,7.58 21.4171729,7.051 C20.5351729,4.936 19.1251729,3.526 17.1861729,2.821 C16.4811729,2.645 15.7761729,2.468 15.0711729,2.468 C10.8411729,2.468 6.78717288,6.698 4.49517288,13.925 C2.90917288,18.685 2.20417288,24.149 2.73217288,28.556 C3.08517288,32.786 4.31917288,35.783 6.25817288,36.312 C9.96017288,37.545 16.6571729,29.966 20.1821729,21.152 C20.1821729,20.624 20.7121729,20.271 21.2401729,20.271 M46.4471729,39.132 L46.4471729,39.132 C40.8061729,39.132 34.6361729,31.023 31.2881729,22.915 L22.1221729,22.915 C18.7721729,30.847 12.6031729,39.132 6.96317288,39.132 C6.43417288,39.132 5.90517288,39.132 5.37717288,38.956 C2.38017288,38.074 0.44117288,34.373 0.0891728798,28.908 C-0.26382712,24.149 0.44117288,18.332 2.02717288,13.22 C4.84717288,4.76 9.60717288,0 15.0711729,0 C15.9521729,0 17.0101729,0.177 17.8911729,0.529 C20.3591729,1.411 22.2981729,2.997 23.3551729,5.465 L30.0531729,5.465 C31.2881729,2.997 33.0511729,1.411 35.5181729,0.529 C36.3991729,0.177 37.4571729,0 38.3391729,0 C43.9791729,0 48.5611729,4.76 51.3821729,13.22 C52.9691729,18.156 53.6741729,24.149 53.3211729,28.908 C52.7921729,34.549 51.0291729,38.074 48.0331729,38.956 C47.6801729,39.132 47.1511729,39.132 46.4471729,39.132" id="Fill-45"></path>
            <polygon id="Fill-46" points="12.0750729 17.6271 14.7190729 17.6271 14.7190729 9.1661 12.0750729 9.1661"></polygon>
            <polygon id="Fill-47" points="9.07807288 14.6301 17.5390729 14.6301 17.5390729 11.9861 9.07807288 11.9861"></polygon>
            <polygon id="Fill-48" points="40.3768729 12.1929 38.7608729 10.5679 40.6358729 8.7039 42.2518729 10.3289"></polygon>
            <polygon id="Fill-49" points="37.5047729 15.0932 35.8887729 13.4682 37.7637729 11.6032 39.3797729 13.2282"></polygon>
            <polygon id="Fill-50" points="43.4032729 15.189 41.7872729 13.565 43.6612729 11.699 45.2772729 13.323"></polygon>
            <polygon id="Fill-51" points="40.4071729 18.2153 38.7901729 16.5913 40.6641729 14.7253 42.2801729 16.3493"></polygon>
            <polygon id="Fill-52" points="24.2370729 12.8681 28.9960729 12.8681 28.9960729 10.2241 24.2370729 10.2241"></polygon>
            <polygon id="Fill-53" points="24.2370729 17.4511 28.9960729 17.4511 28.9960729 14.8071 24.2370729 14.8071"></polygon>
        </g>
    </g>
</svg>