<svg width="82" height="82" xmlns="http://www.w3.org/2000/svg"><g fill="currentColor" fill-rule="evenodd"><path d="M35.24 41.271h11.105c.53 0 1.058.353 1.234.881 3.173 8.285 9.166 15.336 13.044 15.336.352 0 .528 0 .881-.176 1.762-.529 3.173-3.526 3.525-7.756.353-4.407-.352-9.871-1.763-14.631-2.29-7.05-6.344-11.457-10.575-11.457-.705 0-1.41.177-2.115.353-1.94.705-3.525 2.115-4.23 4.23a1.325 1.325 0 01-1.235.881h-8.46a1.324 1.324 0 01-1.234-.881c-.882-2.115-2.292-3.525-4.23-4.23-.706-.176-1.41-.353-2.116-.353-4.23 0-8.284 4.23-10.576 11.457-1.586 4.76-2.29 10.224-1.763 14.631.353 4.23 1.587 7.227 3.526 7.756 3.702 1.233 10.4-6.346 13.924-15.16 0-.528.53-.881 1.058-.881m25.207 18.861c-5.64 0-11.81-8.109-15.159-16.217h-9.166c-3.35 7.932-9.519 16.217-15.159 16.217-.529 0-1.058 0-1.586-.176-2.997-.882-4.936-4.583-5.288-10.048-.353-4.759.352-10.576 1.938-15.688C18.847 25.76 23.607 21 29.071 21c.881 0 1.94.177 2.82.529 2.468.882 4.407 2.468 5.464 4.936h6.698c1.235-2.468 2.998-4.054 5.465-4.936.881-.352 1.94-.529 2.821-.529 5.64 0 10.222 4.76 13.043 13.22 1.587 4.936 2.292 10.929 1.94 15.688-.53 5.641-2.293 9.166-5.289 10.048-.353.176-.882.176-1.586.176"/><path d="M26.075 38.627h2.644v-8.46h-2.644z"/><path d="M23.078 35.63h8.461v-2.644h-8.46zM54.377 33.193l-1.616-1.625 1.875-1.864 1.616 1.625zM51.505 36.093l-1.616-1.625 1.875-1.865 1.616 1.625zM57.403 36.189l-1.616-1.624 1.874-1.866 1.616 1.624zM54.407 39.215l-1.617-1.624 1.874-1.866 1.616 1.624zM38.237 33.868h4.76v-2.644h-4.76zM38.237 38.451h4.76v-2.644h-4.76z"/></g></svg>