<?xml version="1.0" encoding="UTF-8"?>
<svg width="82px" height="82px" viewBox="0 0 82 82" version="1.1" xmlns="http://www.w3.org/2000/svg" xmlns:xlink="http://www.w3.org/1999/xlink">
    <title>searching</title>
    <g id="searching" stroke="none" stroke-width="1" fill="none" fill-rule="evenodd">
        <g id="Group" transform="translate(16.000000, 16.000000)" fill="currentColor">
            <path d="M31.2436,2.333 C27.0776,2.333 23.0786,3.999 20.0796,6.999 C17.0796,9.998 15.4136,13.997 15.4136,18.163 C15.4136,22.329 17.0796,26.328 20.0796,29.327 C23.0786,32.327 27.0776,33.993 31.2436,33.993 C35.4096,33.993 39.4086,32.327 42.4076,29.327 C45.4066,26.328 47.0736,22.329 47.0736,18.163 C47.0736,13.997 45.4066,9.998 42.4076,6.999 C39.4086,3.999 35.4096,2.333 31.2436,2.333 M31.2436,36.492 C26.4116,36.492 21.7456,34.659 18.4126,31.16 C15.0806,27.661 12.9146,22.995 12.9146,18.163 C12.9146,13.331 14.7466,8.665 18.2466,5.332 C21.7456,1.833 26.2446,0 31.0766,0 C35.9096,0 40.5746,1.833 43.9076,5.332 C47.4066,8.832 49.2396,13.331 49.2396,18.163 C49.2396,22.995 47.4066,27.661 43.9076,30.994 C40.7416,34.493 36.0756,36.492 31.2436,36.492" id="Fill-60"></path>
            <polygon id="Fill-61" points="18.3745 29.2803 20.1425 31.0483 16.9605 34.2293 15.1925 32.4613"></polygon>
            <path d="M13.9135,33.6597 C13.4135,33.6597 12.9145,33.8267 12.5805,34.1597 L3.0825,43.6577 C2.4165,44.3237 2.4165,45.6577 3.0825,46.3237 C3.7495,46.9907 5.0825,46.9907 5.7485,46.3237 L15.2465,36.8257 C15.9135,36.1597 15.9135,34.8267 15.2465,34.1597 C14.9135,33.8267 14.4135,33.6597 13.9135,33.6597 M4.4155,49.4897 C3.2495,49.4897 2.0835,48.9897 1.2495,48.1567 C-0.4165,46.4907 -0.4165,43.6577 1.2495,41.8247 L10.7475,32.3267 C12.4145,30.6597 15.2465,30.6597 17.0795,32.3267 C18.7465,33.9927 18.7465,36.8257 17.0795,38.6587 L7.5815,48.1567 C6.7485,48.9897 5.5825,49.4897 4.4155,49.4897" id="Fill-62"></path>
        </g>
    </g>
</svg>