<svg width="82" height="82" xmlns="http://www.w3.org/2000/svg"><g fill="currentColor" fill-rule="evenodd"><path d="M47.244 18.333c-4.166 0-8.165 1.666-11.164 4.666-3 2.999-4.666 6.998-4.666 11.164 0 4.166 1.666 8.165 4.666 11.164 2.999 3 6.998 4.666 11.164 4.666 4.166 0 8.165-1.666 11.164-4.666 2.999-2.999 4.666-6.998 4.666-11.164 0-4.166-1.667-8.165-4.666-11.164-3-3-6.998-4.666-11.164-4.666m0 34.159c-4.832 0-9.498-1.833-12.831-5.332-3.332-3.499-5.498-8.165-5.498-12.997 0-4.832 1.832-9.498 5.332-12.831C37.746 17.833 42.245 16 47.077 16c4.833 0 9.498 1.833 12.83 5.332 3.5 3.5 5.333 7.999 5.333 12.831s-1.833 9.498-5.332 12.831c-3.166 3.499-7.832 5.498-12.664 5.498"/><path d="M34.374 45.28l1.768 1.768-3.182 3.181-1.768-1.768z"/><path d="M29.913 49.66c-.5 0-.999.167-1.333.5l-9.497 9.498c-.666.666-.666 2 0 2.666.667.667 2 .667 2.666 0l9.498-9.498c.666-.666.666-2 0-2.666-.334-.333-.834-.5-1.334-.5m-9.498 15.83c-1.166 0-2.332-.5-3.166-1.333-1.666-1.666-1.666-4.5 0-6.332l9.498-9.498c1.667-1.667 4.5-1.667 6.332 0 1.667 1.666 1.667 4.499 0 6.332l-9.498 9.498c-.833.833-1.999 1.333-3.166 1.333"/></g></svg>