<svg width="82" height="82" xmlns="http://www.w3.org/2000/svg"><g fill="currentColor" fill-rule="evenodd"><path d="M21.91 33.318c-.443 0-.886.147-1.18.443-.592.59-.592 1.77 0 2.36l6.637 6.64 2.361-2.36-6.639-6.64c-.295-.296-.738-.443-1.18-.443zm5.457 12.54l-8.26-8.262c-1.476-1.475-1.476-3.983 0-5.458 1.474-1.475 3.982-1.475 5.457 0l8.262 8.262-5.459 5.458zm4.574-22.718c-.443 0-.885.146-1.18.442-.295.295-.443.885-.443 1.328 0 .442.148.885.443 1.18l6.638 6.638 2.361-2.36-6.639-6.639c-.295-.443-.738-.59-1.18-.59zM37.4 35.826l-8.114-8.262c-.737-.738-1.18-1.623-1.18-2.655 0-1.033.443-2.066 1.18-2.804 1.476-1.475 3.984-1.475 5.46 0l8.26 8.262-5.606 5.46z"/><path d="M26.925 46.3l8.114 8.115c2.213 2.213 5.163 3.393 8.26 3.393 3.1 0 6.05-1.18 8.263-3.393a11.665 11.665 0 000-16.523l-8.114-7.966L26.925 46.3zM43.3 60.169c-3.687 0-7.228-1.475-9.884-4.13L23.68 46.3l19.768-19.62 9.737 9.737c5.458 5.458 5.458 14.31 0 19.62-2.656 2.656-6.197 4.13-9.885 4.13z"/><path d="M45.366 45.12c-.738 0-1.476.296-1.918.886-1.033 1.033-1.033 2.95 0 3.983s2.95 1.033 3.983 0c.59-.59.885-1.18.885-1.918 0-.737-.295-1.475-.885-1.917-.737-.738-1.328-1.033-2.065-1.033m0 7.966c-1.328 0-2.656-.59-3.541-1.475-1.917-1.918-1.917-5.163 0-7.081 1.918-1.918 5.31-1.918 7.082 0 .885.885 1.475 2.213 1.475 3.54 0 1.328-.59 2.656-1.475 3.54-1.033.886-2.213 1.476-3.541 1.476m12.539 5.311c-2.803 0-5.016-1.18-6.196-2.213l1.475-1.77c.148.147 4.28 3.393 8.704.442l1.181 1.918c-1.77 1.18-3.54 1.623-5.164 1.623"/></g></svg>