<svg width="82" height="82" xmlns="http://www.w3.org/2000/svg"><g fill="currentColor" fill-rule="evenodd"><path d="M64.776 58.438h-23.42v-2.186h20.922c-1.093-8.275-5.62-14.364-10.773-14.364-4.684 0-8.744 4.84-10.305 12.18l-2.342-.626c1.874-8.275 6.87-13.896 12.647-13.896 6.713 0 12.178 7.495 13.115 17.643l.156 1.25zM30.271 25.807c-3.591 0-6.558 2.966-6.558 6.558 0 3.59 2.966 6.557 6.558 6.557 3.591 0 6.558-2.967 6.558-6.557.155-3.592-2.81-6.558-6.558-6.558m0 15.457c-4.84 0-8.899-3.903-8.899-8.9 0-4.84 3.903-8.9 8.9-8.9 4.995 0 8.898 3.905 8.898 8.9 0 4.84-3.903 8.9-8.899 8.9"/><path d="M19.498 61.561h21.546c-1.093-8.275-5.62-14.364-10.773-14.364-5.152 0-9.524 6.09-10.773 14.364zm24.044 2.342H17l.156-1.249c.937-10.305 6.558-17.643 13.115-17.643 6.713 0 12.178 7.494 13.116 17.643l.155 1.25zM51.505 20.342c-3.591 0-6.558 2.967-6.558 6.558 0 3.591 2.967 6.557 6.558 6.557 3.59 0 6.558-2.966 6.558-6.557s-2.967-6.558-6.558-6.558m0 15.457c-4.84 0-8.9-3.903-8.9-8.899 0-4.996 3.904-8.9 8.9-8.9s8.899 3.904 8.899 8.9-4.06 8.899-8.9 8.899"/></g></svg>