<?xml version="1.0" encoding="UTF-8"?>
<svg width="82px" height="82px" viewBox="0 0 82 82" version="1.1" xmlns="http://www.w3.org/2000/svg" xmlns:xlink="http://www.w3.org/1999/xlink">
    <title>social-media</title>
    <g id="social-media" stroke="none" stroke-width="1" fill="none" fill-rule="evenodd">
        <g id="Group" transform="translate(17.000000, 18.000000)" fill="currentColor">
            <path d="M47.7763,40.4382 L24.3563,40.4382 L24.3563,38.2522 L45.2783,38.2522 C44.1853,29.9772 39.6573,23.8882 34.5053,23.8882 C29.8213,23.8882 25.7613,28.7282 24.2003,36.0672 L21.8583,35.4422 C23.7323,27.1672 28.7283,21.5462 34.5053,21.5462 C41.2183,21.5462 46.6833,29.0412 47.6203,39.1892 L47.7763,40.4382 Z" id="Fill-55"></path>
            <path d="M13.2715,7.8069 C9.6795,7.8069 6.7135,10.7729 6.7135,14.3649 C6.7135,17.9549 9.6795,20.9219 13.2715,20.9219 C16.8625,20.9219 19.8295,17.9549 19.8295,14.3649 C19.9845,10.7729 17.0185,7.8069 13.2715,7.8069 M13.2715,23.2639 C8.4305,23.2639 4.3725,19.3609 4.3725,14.3649 C4.3725,9.5239 8.2755,5.4649 13.2715,5.4649 C18.2675,5.4649 22.1705,9.3689 22.1705,14.3649 C22.1705,19.2039 18.2675,23.2639 13.2715,23.2639" id="Fill-56"></path>
            <path d="M2.498,43.5613 L24.044,43.5613 C22.951,35.2863 18.424,29.1973 13.271,29.1973 C8.119,29.1973 3.747,35.2863 2.498,43.5613 L2.498,43.5613 Z M26.542,45.9033 L0,45.9033 L0.156,44.6543 C1.093,34.3493 6.714,27.0113 13.271,27.0113 C19.984,27.0113 25.449,34.5053 26.387,44.6543 L26.542,45.9033 Z" id="Fill-57"></path>
            <path d="M34.5049,2.342 C30.9139,2.342 27.9469,5.309 27.9469,8.9 C27.9469,12.491 30.9139,15.457 34.5049,15.457 C38.0959,15.457 41.0629,12.491 41.0629,8.9 C41.0629,5.309 38.0959,2.342 34.5049,2.342 M34.5049,17.799 C29.6649,17.799 25.6059,13.896 25.6059,8.9 C25.6059,3.904 29.5089,0 34.5049,0 C39.5009,0 43.4039,3.904 43.4039,8.9 C43.4039,13.896 39.3449,17.799 34.5049,17.799" id="Fill-58"></path>
        </g>
    </g>
</svg>