<svg width="82" height="82" xmlns="http://www.w3.org/2000/svg"><g fill="none" fill-rule="evenodd"><path d="M41.621 23.77c-3.114 0-5.55 2.436-5.55 5.55 0 3.113 2.436 5.685 5.55 5.685 3.113 0 5.551-2.436 5.551-5.55s-2.438-5.686-5.55-5.686m0 13.267a7.568 7.568 0 01-7.582-7.58 7.569 7.569 0 017.581-7.583 7.57 7.57 0 017.581 7.582c0 4.061-3.385 7.581-7.58 7.581M26.323 49.141h30.46c-.813-9.206-7.31-9.127-15.298-9.127-7.85.136-14.35.057-15.162 9.127zm32.626 2.03H24.292v-1.083c.406-10.83 7.987-12.104 17.33-12.104 9.34 0 16.921 1.274 17.327 12.104v1.083z" fill="currentColor"/><path d="M23.074 49.141h37.23v-30.11h-37.23v30.11zm-2.03 2.031h41.29V17h-41.29v34.172z" fill="currentColor"/><path d="M22.133 50.368L15 64.71h52.794l-6.682-14.342s-39.625-.645-38.979 0z" stroke="currentColor" stroke-width="2.007"/><path fill="currentColor" d="M27.958 53.796v2.488h-3.152v-2.488M34.429 53.796v2.488h-3.152v-2.488M40.415 53.796v2.488h-3.152v-2.488M46.887 53.796v2.488h-3.152v-2.488M52.873 53.796v2.488h-3.152v-2.488M59.344 53.796v2.488h-3.152v-2.488M27.958 58.316v2.49h-3.152v-2.49M34.429 58.316v2.49h-3.152v-2.49M40.415 58.316v2.49h-3.152v-2.49M46.887 58.316v2.49h-3.152v-2.49M52.873 58.316v2.49h-3.152v-2.49M59.344 58.316v2.49h-3.152v-2.49"/></g></svg>