<?xml version="1.0" encoding="UTF-8"?>
<svg width="82px" height="82px" viewBox="0 0 82 82" version="1.1" xmlns="http://www.w3.org/2000/svg" xmlns:xlink="http://www.w3.org/1999/xlink">
    <title>video-conferencing</title>
    <g id="video-conferencing" stroke="none" stroke-width="1" fill="none" fill-rule="evenodd">
        <g id="Group" transform="translate(15.000000, 17.000000)">
            <path d="M26.6212,6.7693 C23.5072,6.7693 21.0702,9.2063 21.0702,12.3193 C21.0702,15.4333 23.5072,18.0053 26.6212,18.0053 C29.7342,18.0053 32.1722,15.5693 32.1722,12.4553 C32.1722,9.3413 29.7342,6.7693 26.6212,6.7693 M26.6212,20.0363 C22.4242,20.0363 19.0402,16.6523 19.0402,12.4553 C19.0402,8.2583 22.4242,4.8733 26.6212,4.8733 C30.8172,4.8733 34.2022,8.2583 34.2022,12.4553 C34.2022,16.5163 30.8172,20.0363 26.6212,20.0363" id="Fill-71" fill="currentColor"></path>
            <path d="M11.3234,32.1414 L41.7834,32.1414 C40.9704,22.9354 34.4724,23.0143886 26.4854,23.0143886 C18.6344,23.1504 12.1354,23.0714 11.3234,32.1414 L11.3234,32.1414 Z M43.9494,34.1714 L9.2924,34.1714 L9.2924,33.0884 C9.6984,22.2584 17.2794,20.9844 26.6214,20.9844 C35.9624,20.9844 43.5434,22.2584 43.9494,33.0884 L43.9494,34.1714 Z" id="Fill-72" fill="currentColor"></path>
            <path d="M8.0742,32.141 L45.3032,32.141 L45.3032,2.031 L8.0742,2.031 L8.0742,32.141 Z M6.0432,34.172 L47.3342,34.172 L47.3342,0 L6.0432,0 L6.0432,34.172 Z" id="Fill-73" fill="currentColor"></path>
            <path d="M7.133,33.3679 L0,47.7099 L52.794,47.7099 L46.112,33.3679 C46.112,33.3679 6.487,32.7229 7.133,33.3679 Z" id="Stroke-74" stroke="currentColor" stroke-width="2.007"></path>
            <polyline id="Fill-75" fill="currentColor" points="12.9582 36.7957 12.9582 39.2837 9.8062 39.2837 9.8062 36.7957"></polyline>
            <polyline id="Fill-76" fill="currentColor" points="19.4289 36.7957 19.4289 39.2837 16.2769 39.2837 16.2769 36.7957"></polyline>
            <polyline id="Fill-77" fill="currentColor" points="25.4152 36.7957 25.4152 39.2837 22.2632 39.2837 22.2632 36.7957"></polyline>
            <polyline id="Fill-78" fill="currentColor" points="31.8869 36.7957 31.8869 39.2837 28.7349 39.2837 28.7349 36.7957"></polyline>
            <polyline id="Fill-79" fill="currentColor" points="37.8732 36.7957 37.8732 39.2837 34.7212 39.2837 34.7212 36.7957"></polyline>
            <polyline id="Fill-80" fill="currentColor" points="44.3439 36.7957 44.3439 39.2837 41.1919 39.2837 41.1919 36.7957"></polyline>
            <polyline id="Fill-81" fill="currentColor" points="12.9582 41.3162 12.9582 43.8052 9.8062 43.8052 9.8062 41.3162"></polyline>
            <polyline id="Fill-82" fill="currentColor" points="19.4289 41.3162 19.4289 43.8052 16.2769 43.8052 16.2769 41.3162"></polyline>
            <polyline id="Fill-83" fill="currentColor" points="25.4152 41.3162 25.4152 43.8052 22.2632 43.8052 22.2632 41.3162"></polyline>
            <polyline id="Fill-84" fill="currentColor" points="31.8869 41.3162 31.8869 43.8052 28.7349 43.8052 28.7349 41.3162"></polyline>
            <polyline id="Fill-85" fill="currentColor" points="37.8732 41.3162 37.8732 43.8052 34.7212 43.8052 34.7212 41.3162"></polyline>
            <polyline id="Fill-86" fill="currentColor" points="44.3439 41.3162 44.3439 43.8052 41.1919 43.8052 41.1919 41.3162"></polyline>
        </g>
    </g>
</svg>