<svg width="82" height="82" xmlns="http://www.w3.org/2000/svg"><g fill="currentColor" fill-rule="evenodd"><path d="M19.659 38.077c-.157 0-.47.156-.47.47v22.048c0 .157.157.469.47.469h31.899c.158 0 .47-.156.47-.47V38.39c0-.156-.156-.468-.47-.468H19.659v.156zm31.899 25.177H19.659c-1.564 0-2.659-1.251-2.659-2.816v-22.05c0-1.562 1.251-2.813 2.659-2.813h31.899a2.803 2.803 0 012.816 2.814v22.049a2.804 2.804 0 01-2.816 2.816z"/><path d="M54.374 54.496l7.975 3.91V40.579l-7.975 4.065v9.852zm10.32 7.507l-12.666-6.1V43.238l12.666-6.411v25.177zM24.663 44.488h11.57v-2.346h-11.57zM43.428 21.189c-2.814 0-5.004 2.188-5.004 5.004 0 2.814 2.19 5.004 5.004 5.004 2.814 0 5.004-2.19 5.004-5.004 0-2.659-2.346-5.004-5.004-5.004m0 12.51a7.342 7.342 0 01-7.35-7.35A7.341 7.341 0 0143.428 19a7.341 7.341 0 017.35 7.349c0 3.909-3.285 7.35-7.35 7.35M27.321 23.378c-1.877 0-3.44 1.564-3.44 3.44 0 1.877 1.563 3.44 3.44 3.44 1.876 0 3.44-1.563 3.44-3.44-.157-1.876-1.564-3.44-3.44-3.44m0 9.227c-3.128 0-5.786-2.502-5.786-5.787 0-3.128 2.502-5.787 5.786-5.787 3.283 0 5.63 2.66 5.63 5.787 0 3.128-2.503 5.787-5.63 5.787"/></g></svg>