<?xml version="1.0" encoding="UTF-8"?>
<svg width="82px" height="82px" viewBox="0 0 82 82" version="1.1" xmlns="http://www.w3.org/2000/svg" xmlns:xlink="http://www.w3.org/1999/xlink">
    <title>video-streaming</title>
    <g id="video-streaming" stroke="none" stroke-width="1" fill="none" fill-rule="evenodd">
        <g id="Group" transform="translate(17.000000, 19.000000)" fill="currentColor">
            <path d="M2.659,19.0767 C2.502,19.0767 2.189,19.2327 2.189,19.5467 L2.189,41.5947 C2.189,41.7517 2.346,42.0637 2.659,42.0637 L34.558,42.0637 C34.716,42.0637 35.028,41.9077 35.028,41.5947 L35.028,19.3887 C35.028,19.2327 34.872,18.9207 34.558,18.9207 L2.659,18.9207 L2.659,19.0767 Z M34.558,44.2537 L2.659,44.2537 C1.095,44.2537 0,43.0027 0,41.4377 L0,19.3887 C0,17.8257 1.251,16.5747 2.659,16.5747 L34.558,16.5747 C36.123,16.5747 37.374,17.8257 37.374,19.3887 L37.374,41.4377 C37.374,43.0027 36.123,44.2537 34.558,44.2537 L34.558,44.2537 Z" id="Fill-64"></path>
            <path d="M37.3739,35.4956 L45.3489,39.4056 L45.3489,21.5786 L37.3739,25.6436 L37.3739,35.4956 Z M47.6939,43.0026 L35.0279,36.9036 L35.0279,24.2366 L47.6939,17.8256 L47.6939,43.0026 Z" id="Fill-65"></path>
            <polygon id="Fill-66" points="7.6628 25.4879 19.2338 25.4879 19.2338 23.1419 7.6628 23.1419"></polygon>
            <path d="M26.4276,2.189 C23.6136,2.189 21.4236,4.377 21.4236,7.193 C21.4236,10.007 23.6136,12.197 26.4276,12.197 C29.2416,12.197 31.4316,10.007 31.4316,7.193 C31.4316,4.534 29.0856,2.189 26.4276,2.189 M26.4276,14.699 C22.3626,14.699 19.0776,11.415 19.0776,7.349 C19.0776,3.283 22.3626,0 26.4276,0 C30.4926,0 33.7776,3.283 33.7776,7.349 C33.7776,11.258 30.4926,14.699 26.4276,14.699" id="Fill-67"></path>
            <path d="M10.3212,4.3775 C8.4442,4.3775 6.8812,5.9415 6.8812,7.8175 C6.8812,9.6945 8.4442,11.2585 10.3212,11.2585 C12.1972,11.2585 13.7612,9.6945 13.7612,7.8175 C13.6042,5.9415 12.1972,4.3775 10.3212,4.3775 M10.3212,13.6045 C7.1932,13.6045 4.5352,11.1025 4.5352,7.8175 C4.5352,4.6905 7.0372,2.0315 10.3212,2.0315 C13.6042,2.0315 15.9502,4.6905 15.9502,7.8175 C15.9502,10.9455 13.4482,13.6045 10.3212,13.6045" id="Fill-68"></path>
        </g>
    </g>
</svg>