<?xml version="1.0" standalone="no"?>
<!DOCTYPE svg PUBLIC "-//W3C//DTD SVG 20010904//EN"
 "http://www.w3.org/TR/2001/REC-SVG-20010904/DTD/svg10.dtd">
<svg version="1.0" xmlns="http://www.w3.org/2000/svg"
 width="700.000000pt" height="700.000000pt" viewBox="0 0 700.000000 700.000000"
 preserveAspectRatio="xMidYMid meet">
<metadata>
Created by potrace 1.14, written by Peter Selinger 2001-2017
</metadata>
<g transform="translate(0.000000,700.000000) scale(0.100000,-0.100000)"
fill="#000000" stroke="none">
<path d="M667 4715 c-2 -5 -3 -381 -3 -835 l1 -825 390 -1 c215 -1 395 -2 400
-3 7 -1 10 -134 10 -392 0 -215 2 -394 5 -398 8 -11 1660 -8 1661 4 1 5 3 181
4 390 1 209 3 385 4 390 1 7 263 10 764 10 l762 0 1 -390 c1 -215 2 -395 3
-400 1 -7 145 -10 433 -10 l433 0 1 395 c1 217 2 397 3 400 0 3 180 5 398 5
l398 0 1 825 c0 454 -1 830 -3 835 -2 7 -280 10 -836 10 l-832 0 -1 -395 c-1
-217 -2 -397 -3 -400 0 -3 -359 -5 -796 -5 -535 0 -796 -3 -798 -10 -2 -5 -3
-184 -2 -397 0 -254 -3 -389 -10 -391 -5 -2 -170 -3 -365 -2 l-355 0 -1 795
c-1 437 -2 797 -3 800 -2 11 -1660 6 -1664 -5z"/>
</g>
</svg>
